<svg width="183" height="40" viewBox="0 0 183 40" fill="none" xmlns="http://www.w3.org/2000/svg">
<path d="M4 29V27H8V23.9C7.18333 23.7167 6.45417 23.3708 5.8125 22.8625C5.17083 22.3542 4.7 21.7167 4.4 20.95C3.15 20.8 2.10417 20.2542 1.2625 19.3125C0.420833 18.3708 0 17.2667 0 16V15C0 14.45 0.195833 13.9792 0.5875 13.5875C0.979167 13.1958 1.45 13 2 13H4V11H14V13H16C16.55 13 17.0208 13.1958 17.4125 13.5875C17.8042 13.9792 18 14.45 18 15V16C18 17.2667 17.5792 18.3708 16.7375 19.3125C15.8958 20.2542 14.85 20.8 13.6 20.95C13.3 21.7167 12.8292 22.3542 12.1875 22.8625C11.5458 23.3708 10.8167 23.7167 10 23.9V27H14V29H4ZM4 18.8V15H2V16C2 16.6333 2.18333 17.2042 2.55 17.7125C2.91667 18.2208 3.4 18.5833 4 18.8ZM9 22C9.83333 22 10.5417 21.7083 11.125 21.125C11.7083 20.5417 12 19.8333 12 19V13H6V19C6 19.8333 6.29167 20.5417 6.875 21.125C7.45833 21.7083 8.16667 22 9 22ZM14 18.8C14.6 18.5833 15.0833 18.2208 15.45 17.7125C15.8167 17.2042 16 16.6333 16 16V15H14V18.8Z" fill="#DEB8FF"/>
<path d="M42.2766 32.3125C40.2139 32.3125 38.3673 31.8434 36.7369 30.9052C35.1064 29.9669 33.8206 28.6074 32.8793 26.8266C31.9381 25.0457 31.4675 22.8952 31.4675 20.375C31.4675 17.8387 31.9423 15.6788 32.892 13.8951C33.8417 12.1115 35.1332 10.7508 36.7664 9.81297C38.3996 8.87516 40.2364 8.40625 42.2766 8.40625C43.5999 8.40625 44.8328 8.59078 45.9753 8.95985C47.1178 9.32891 48.1311 9.86808 49.015 10.5774C49.899 11.2866 50.6239 12.1534 51.1896 13.1777C51.7553 14.202 52.1255 15.3693 52.3 16.6797H47.4749C47.3645 16.0408 47.1622 15.4727 46.8681 14.9754C46.5739 14.4781 46.2039 14.0549 45.7579 13.7057C45.312 13.3566 44.8034 13.0919 44.232 12.9117C43.6607 12.7315 43.0426 12.6414 42.3778 12.6414C41.1676 12.6414 40.1055 12.9435 39.1915 13.5478C38.2774 14.152 37.5682 15.0293 37.0638 16.1797C36.5595 17.3301 36.3073 18.7286 36.3073 20.375C36.3073 22.0504 36.5635 23.4619 37.0759 24.6095C37.5883 25.7571 38.2987 26.6219 39.2071 27.2041C40.1155 27.7863 41.1668 28.0774 42.3609 28.0774C43.0257 28.0774 43.6424 27.9861 44.2109 27.8035C44.7795 27.6209 45.2895 27.3562 45.7411 27.0094C46.1926 26.6627 46.5683 26.2394 46.8681 25.7398C47.1678 25.2401 47.3758 24.6732 47.4918 24.039H52.3169C52.1865 25.1196 51.8652 26.154 51.3529 27.1421C50.8406 28.1303 50.1551 29.0139 49.2965 29.7931C48.4378 30.5723 47.4204 31.187 46.2441 31.6372C45.0679 32.0874 43.7453 32.3125 42.2766 32.3125ZM62.6863 32.3412C60.9342 32.3412 59.4182 31.9648 58.1383 31.212C56.8584 30.4592 55.8724 29.4071 55.1804 28.0558C54.4885 26.7044 54.1425 25.1329 54.1425 23.3412C54.1425 21.5352 54.4885 19.9553 55.1804 18.6016C55.8724 17.2478 56.8584 16.1945 58.1383 15.4417C59.4182 14.6889 60.9342 14.3125 62.6863 14.3125C64.4432 14.3125 65.9599 14.6889 67.2366 15.4417C68.5133 16.1945 69.4976 17.2478 70.1896 18.6016C70.8816 19.9553 71.2276 21.5352 71.2276 23.3412C71.2276 25.1329 70.8816 26.7044 70.1896 28.0558C69.4976 29.4071 68.5133 30.4592 67.2366 31.212C65.9599 31.9648 64.4432 32.3412 62.6863 32.3412ZM62.6863 28.6527C63.5202 28.6527 64.2175 28.421 64.7782 27.9574C65.339 27.4939 65.7594 26.8599 66.0396 26.0556C66.3198 25.2512 66.4599 24.3408 66.4599 23.3244C66.4599 22.2975 66.3198 21.3837 66.0396 20.583C65.7594 19.7823 65.339 19.1518 64.7782 18.6915C64.2175 18.2312 63.5202 18.001 62.6863 18.001C61.8515 18.001 61.1547 18.2312 60.596 18.6915C60.0373 19.1518 59.6178 19.7811 59.3376 20.5794C59.0574 21.3777 58.9173 22.2927 58.9173 23.3244C58.9173 24.3408 59.0574 25.2512 59.3376 26.0556C59.6178 26.8599 60.0373 27.4939 60.596 27.9574C61.1547 28.421 61.8515 28.6527 62.6863 28.6527ZM73.6931 32V14.5312H78.0476L78.2742 18.8763H77.9373C78.1994 17.799 78.5953 16.9223 79.1249 16.2463C79.6546 15.5702 80.2743 15.0717 80.9838 14.7508C81.6934 14.4298 82.4373 14.2694 83.2154 14.2694C84.4694 14.2694 85.4825 14.6684 86.2549 15.4666C87.0273 16.2647 87.5956 17.4961 87.9598 19.1607H87.416C87.675 18.0382 88.1002 17.1156 88.6917 16.393C89.2831 15.6704 89.9805 15.1358 90.7839 14.7892C91.5872 14.4427 92.4355 14.2694 93.3289 14.2694C94.3955 14.2694 95.3484 14.5022 96.1873 14.9678C97.0263 15.4334 97.6875 16.1076 98.1711 16.9902C98.6546 17.8728 98.8964 18.949 98.8964 20.2188V32H94.2106V21.1154C94.2106 20.125 93.9436 19.3885 93.4097 18.9059C92.8757 18.4233 92.2188 18.182 91.4388 18.182C90.8488 18.182 90.3375 18.3109 89.9048 18.5687C89.4721 18.8265 89.14 19.1842 88.9087 19.6418C88.6773 20.0994 88.5617 20.6361 88.5617 21.2519V32H84.0278V20.986C84.0278 20.1298 83.7752 19.4484 83.27 18.9418C82.7648 18.4353 82.1102 18.182 81.3063 18.182C80.7586 18.182 80.2626 18.3085 79.8183 18.5615C79.3741 18.8145 79.0231 19.1818 78.7654 19.6634C78.5077 20.1449 78.3789 20.7367 78.3789 21.4388V32H73.6931ZM102.096 38.5312V14.5312H106.705V17.4716H106.933C107.148 17.0072 107.455 16.531 107.854 16.043C108.253 15.5549 108.782 15.1445 109.44 14.8117C110.098 14.4789 110.922 14.3125 111.911 14.3125C113.207 14.3125 114.389 14.6461 115.459 15.3134C116.529 15.9807 117.386 16.9804 118.031 18.3125C118.675 19.6446 118.997 21.3056 118.997 23.2956C118.997 25.2342 118.684 26.8721 118.059 28.2094C117.434 29.5467 116.586 30.5612 115.513 31.253C114.44 31.9447 113.231 32.2906 111.885 32.2906C110.938 32.2906 110.136 32.13 109.479 31.8089C108.821 31.4878 108.288 31.0906 107.878 30.6175C107.469 30.1444 107.154 29.6732 106.933 29.2041H106.782V38.5312H102.096ZM110.442 28.5346C111.26 28.5346 111.946 28.3106 112.501 27.8627C113.055 27.4148 113.475 26.7947 113.76 26.0025C114.046 25.2102 114.188 24.3031 114.188 23.2812C114.188 22.2586 114.047 21.3559 113.764 20.5732C113.481 19.7905 113.062 19.1774 112.508 18.7338C111.953 18.2903 111.265 18.0685 110.442 18.0685C109.639 18.0685 108.957 18.2831 108.397 18.7123C107.837 19.1414 107.411 19.745 107.12 20.5229C106.829 21.3008 106.683 22.2202 106.683 23.2812C106.683 24.331 106.83 25.2494 107.123 26.0365C107.417 26.8236 107.845 27.4367 108.408 27.8759C108.971 28.315 109.649 28.5346 110.442 28.5346ZM129.369 32.3412C127.586 32.3412 126.048 31.9761 124.757 31.2458C123.465 30.5155 122.473 29.4784 121.781 28.1347C121.089 26.7909 120.742 25.1979 120.742 23.3556C120.742 21.5583 121.086 19.9816 121.775 18.6255C122.463 17.2693 123.436 16.2115 124.694 15.4519C125.952 14.6923 127.432 14.3125 129.133 14.3125C130.274 14.3125 131.34 14.4943 132.331 14.8578C133.322 15.2214 134.192 15.7696 134.941 16.5025C135.689 17.2354 136.273 18.1564 136.694 19.2653C137.115 20.3743 137.325 21.677 137.325 23.1734V24.4888H122.666V21.54H135.042L132.852 22.3306C132.852 21.421 132.713 20.6306 132.435 19.9594C132.157 19.2882 131.745 18.7674 131.2 18.3972C130.655 18.027 129.977 17.8419 129.167 17.8419C128.357 17.8419 127.67 18.0294 127.105 18.4044C126.541 18.7794 126.112 19.2882 125.817 19.9306C125.522 20.5731 125.375 21.3036 125.375 22.1222V24.1982C125.375 25.2085 125.544 26.0574 125.882 26.7447C126.221 27.4319 126.696 27.9483 127.31 28.2937C127.923 28.6391 128.634 28.8118 129.443 28.8118C129.99 28.8118 130.487 28.7339 130.935 28.5782C131.382 28.4225 131.766 28.1919 132.088 27.8865C132.41 27.5811 132.655 27.2046 132.823 26.7572L137.061 27.5409C136.779 28.5059 136.289 29.3485 135.593 30.0686C134.896 30.7887 134.024 31.3475 132.975 31.745C131.926 32.1425 130.724 32.3412 129.369 32.3412ZM146.117 32.2906C144.782 32.2906 143.575 31.9447 142.497 31.253C141.419 30.5612 140.567 29.5467 139.942 28.2094C139.317 26.8721 139.005 25.2342 139.005 23.2956C139.005 21.3056 139.327 19.6446 139.971 18.3125C140.616 16.9804 141.475 15.9807 142.551 15.3134C143.626 14.6461 144.806 14.3125 146.091 14.3125C147.08 14.3125 147.903 14.4789 148.562 14.8117C149.22 15.1445 149.751 15.5549 150.156 16.043C150.56 16.531 150.864 17.0072 151.069 17.4716H151.22V8.71875H155.906V32H151.297V29.2041H151.069C150.853 29.6732 150.539 30.1444 150.127 30.6175C149.715 31.0906 149.183 31.4878 148.531 31.8089C147.879 32.13 147.074 32.2906 146.117 32.2906ZM147.56 28.5346C148.358 28.5346 149.037 28.315 149.598 27.8759C150.158 27.4367 150.585 26.8236 150.879 26.0365C151.172 25.2494 151.319 24.331 151.319 23.2812C151.319 22.2202 151.173 21.3008 150.882 20.5229C150.591 19.745 150.165 19.1414 149.605 18.7123C149.045 18.2831 148.363 18.0685 147.56 18.0685C146.743 18.0685 146.056 18.2903 145.498 18.7338C144.941 19.1774 144.521 19.7905 144.238 20.5732C143.955 21.3559 143.814 22.2586 143.814 23.2812C143.814 24.3031 143.956 25.2102 144.242 26.0025C144.527 26.7947 144.95 27.4148 145.509 27.8627C146.069 28.3106 146.752 28.5346 147.56 28.5346ZM159.102 32V14.5312H163.788V32H159.102ZM161.444 12.2541C160.738 12.2541 160.134 12.0182 159.63 11.5465C159.127 11.0747 158.875 10.5086 158.875 9.8481C158.875 9.17415 159.127 8.60404 159.63 8.13779C160.134 7.67153 160.738 7.4384 161.444 7.4384C162.153 7.4384 162.76 7.67123 163.264 8.13688C163.768 8.60254 164.02 9.1728 164.02 9.84766C164.02 10.509 163.768 11.0754 163.264 11.5469C162.76 12.0184 162.153 12.2541 161.444 12.2541ZM171.857 32.3387C170.747 32.3387 169.753 32.1431 168.874 31.7517C167.995 31.3604 167.305 30.7777 166.802 30.0038C166.298 29.2298 166.047 28.2671 166.047 27.1156C166.047 26.1381 166.225 25.3228 166.582 24.6697C166.938 24.0166 167.426 23.4906 168.045 23.0919C168.664 22.6931 169.368 22.3897 170.156 22.1817C170.944 21.9737 171.77 21.8288 172.633 21.7472C173.641 21.6455 174.454 21.5498 175.074 21.46C175.694 21.3702 176.148 21.2297 176.438 21.0386C176.728 20.8474 176.872 20.5636 176.872 20.1872V20.1103C176.872 19.6118 176.767 19.1901 176.555 18.8452C176.343 18.5003 176.034 18.236 175.627 18.0524C175.22 17.8688 174.721 17.7769 174.128 17.7769C173.53 17.7769 173.008 17.8678 172.561 18.0494C172.113 18.2311 171.747 18.4736 171.461 18.7771C171.176 19.0805 170.97 19.4213 170.845 19.7994L166.547 19.086C166.843 18.0685 167.34 17.2054 168.039 16.4968C168.737 15.7881 169.605 15.2469 170.643 14.8731C171.681 14.4994 172.847 14.3125 174.142 14.3125C175.08 14.3125 175.992 14.4236 176.877 14.6458C177.762 14.868 178.557 15.2155 179.261 15.6885C179.965 16.1614 180.524 16.7729 180.938 17.5231C181.351 18.2734 181.558 19.1789 181.558 20.2397V32H177.113V29.5744H176.96C176.677 30.1156 176.302 30.594 175.834 31.0094C175.365 31.4248 174.802 31.7502 174.143 31.9856C173.485 32.221 172.722 32.3387 171.857 32.3387ZM173.176 29.0527C173.914 29.0527 174.562 28.9059 175.121 28.6121C175.679 28.3184 176.116 27.9219 176.432 27.4228C176.748 26.9236 176.906 26.3677 176.906 25.755V23.8647C176.763 23.9608 176.553 24.0508 176.274 24.1349C175.996 24.2189 175.685 24.2942 175.342 24.3607C174.999 24.4271 174.661 24.4848 174.327 24.5336C173.992 24.5825 173.696 24.6253 173.436 24.6622C172.86 24.7399 172.354 24.8719 171.917 25.0582C171.481 25.2444 171.141 25.4935 170.9 25.8053C170.658 26.1172 170.537 26.508 170.537 26.9778C170.537 27.4301 170.651 27.8101 170.879 28.1179C171.108 28.4257 171.419 28.6585 171.815 28.8162C172.21 28.9739 172.664 29.0527 173.176 29.0527Z" fill="#EADFED"/>
</svg>
